<?xml version="1.0" standalone="no"?>
<!DOCTYPE svg PUBLIC "-//W3C//DTD SVG 20010904//EN"
 "http://www.w3.org/TR/2001/REC-SVG-20010904/DTD/svg10.dtd">
<svg version="1.0" xmlns="http://www.w3.org/2000/svg"
 width="2000.000000pt" height="2000.000000pt" viewBox="0 0 2000.000000 2000.000000"
 preserveAspectRatio="xMidYMid meet">

<g transform="translate(0.000000,2000.000000) scale(0.100000,-0.100000)"
fill="#000000" stroke="none">
<path d="M4060 19689 c-1242 -95 -2381 -763 -3075 -1804 -368 -552 -575 -1120
-662 -1815 -17 -139 -18 -409 -18 -6070 0 -5661 1 -5931 18 -6070 27 -213 53
-355 97 -535 336 -1362 1353 -2456 2690 -2894 251 -82 501 -137 820 -178 128
-17 454 -18 6065 -18 5668 0 5936 1 6075 18 214 27 356 53 537 97 1464 362
2613 1513 2973 2975 45 181 71 325 97 535 17 139 18 407 18 6070 0 5661 -1
5931 -18 6070 -62 495 -178 901 -376 1315 -479 1001 -1359 1772 -2415 2116
-241 79 -487 132 -806 176 -117 16 -516 17 -6015 19 -3295 1 -5941 -3 -6005
-7z m6269 -4593 c536 -114 1043 -443 1386 -901 286 -382 454 -805 510 -1281
17 -148 20 -445 5 -595 -43 -437 -180 -899 -399 -1354 -108 -223 -183 -355
-317 -558 -153 -230 -284 -390 -485 -590 l-178 -178 24 -65 c111 -295 413
-500 1060 -720 305 -104 556 -177 1440 -419 209 -57 433 -122 499 -145 777
-274 1275 -804 1449 -1545 51 -215 62 -320 61 -590 0 -266 -17 -415 -64 -566
-28 -93 -78 -129 -260 -187 -1332 -424 -7479 -523 -9680 -156 -412 68 -679
154 -767 246 -36 37 -40 53 -72 275 -59 408 -52 776 18 1103 52 240 175 523
306 705 208 290 494 509 868 664 135 56 224 83 687 211 1143 315 1565 451
1883 610 288 144 455 297 543 498 19 42 34 84 34 92 0 9 -39 54 -86 100 -582
576 -1044 1539 -1178 2455 -114 780 60 1473 509 2030 91 112 292 309 405 397
337 261 738 430 1156 487 38 5 170 8 294 6 196 -3 241 -7 349 -29z m-3414
-1416 c178 -35 385 -113 512 -193 l42 -26 -20 -68 c-118 -401 -134 -840 -48
-1343 74 -432 247 -942 470 -1388 l109 -216 -41 -75 c-54 -102 -192 -306 -276
-411 -37 -47 -129 -148 -205 -225 l-137 -141 23 -55 c59 -146 190 -267 399
-370 48 -24 87 -46 87 -49 0 -20 -723 -235 -1445 -431 -530 -144 -703 -202
-918 -310 -440 -221 -752 -524 -951 -925 -156 -315 -230 -637 -243 -1052 l-6
-204 -91 7 c-917 66 -1441 170 -1537 305 -46 65 -84 571 -60 796 30 287 113
527 252 731 71 104 244 275 349 345 213 141 335 190 819 323 925 255 1161 330
1405 452 209 104 328 205 399 341 32 61 42 72 64 72 23 0 12 15 -98 128 -195
199 -342 402 -486 673 -357 669 -488 1411 -348 1969 129 518 494 962 980 1195
202 96 363 141 605 169 74 9 294 -5 395 -24z m6443 19 c612 -67 1153 -452
1427 -1014 224 -460 243 -987 59 -1620 -161 -555 -462 -1081 -807 -1412 -81
-78 -85 -83 -58 -83 26 0 32 -7 59 -63 34 -75 130 -180 217 -241 233 -164 531
-269 1580 -556 394 -108 566 -169 710 -251 316 -180 532 -440 644 -776 72
-215 102 -487 83 -747 -14 -183 -45 -394 -62 -426 -55 -102 -467 -203 -1080
-264 -131 -14 -515 -46 -539 -46 -4 0 -11 82 -15 182 -4 100 -14 235 -22 301
-115 930 -652 1563 -1580 1860 -60 20 -285 84 -500 142 -214 59 -515 142 -669
186 -295 84 -785 239 -785 248 0 3 43 28 96 55 115 58 234 145 292 212 42 49
112 174 112 201 0 8 -51 65 -113 126 -61 62 -150 157 -196 212 -89 107 -254
349 -311 457 l-35 67 82 158 c337 654 531 1348 550 1968 8 276 -18 512 -88
774 -35 133 -45 114 106 189 274 137 564 192 843 161z"/>
</g>
</svg>
